<?xml version="1.0" encoding="utf-8"?>
<!-- Generator: Adobe Illustrator 27.0.0, SVG Export Plug-In . SVG Version: 6.00 Build 0)  -->
<svg version="1.1" id="Ebene_1" xmlns="http://www.w3.org/2000/svg" xmlns:xlink="http://www.w3.org/1999/xlink" x="0px" y="0px"
	 viewBox="0 0 283.5 283.5" style="enable-background:new 0 0 283.5 283.5;" xml:space="preserve">
<g>
	<path d="M141.7,28.3c-62.6,0-113.4,50.8-113.4,113.4c0,62.6,50.8,113.4,113.4,113.4s113.4-50.8,113.4-113.4
		C255.1,79.1,204.4,28.3,141.7,28.3z M160.9,191.5c-0.6,1.1-1.2,2.2-2,3.2c0,0,0,0,0,0c-0.5,0.7-0.9,1.3-1.4,1.9
		c-7.2,9.1-21,8.9-28.1-0.3l-0.1-0.2c-0.7-0.9-1.3-1.8-2-2.9C111.5,169.1,91.5,118,88.8,86.3h13.7h2c6.3,0,11.1,3,14.1,6.8
		c1.8,2.3,2.9,4.8,3.3,7.1c4.1,21.4,10.5,41.5,22.4,65.2c0.1,0.2,8.3,17.2,19.4,20L160.9,191.5z M178.1,119.3
		c-9.1,0-16.5-7.4-16.5-16.5c0-9.1,7.4-16.5,16.5-16.5c9.1,0,16.5,7.4,16.5,16.5C194.6,111.9,187.2,119.3,178.1,119.3z"/>
</g>
</svg>

