<?xml version="1.0" encoding="utf-8"?>
<!-- Generator: Adobe Illustrator 27.2.0, SVG Export Plug-In . SVG Version: 6.00 Build 0)  -->
<svg version="1.1" id="Ebene_1" xmlns="http://www.w3.org/2000/svg" xmlns:xlink="http://www.w3.org/1999/xlink" x="0px" y="0px"
	 viewBox="0 0 1000 430" style="enable-background:new 0 0 1000 430;" xml:space="preserve">
<g>
	<path d="M211.7,78.3C136.2,78.3,75,139.5,75,215c0,75.5,61.2,136.7,136.7,136.7S348.4,290.5,348.4,215
		C348.4,139.5,287.2,78.3,211.7,78.3z M234.8,274.9c-0.7,1.3-1.5,2.7-2.4,3.9c0,0,0,0,0,0c-0.6,0.8-1.1,1.6-1.7,2.3
		c-8.6,10.9-25.3,10.7-33.8-0.4l-0.2-0.2c-0.8-1.1-1.6-2.2-2.5-3.4c-19.1-29.1-43.2-90.7-46.4-128.9h16.5h2.4c7.6,0,13.4,3.6,17,8.2
		c2.1,2.7,3.5,5.8,4,8.6c4.9,25.7,12.7,50.1,27.1,78.6c0.1,0.2,10,20.8,23.4,24.1L234.8,274.9z M255.6,188c-11,0-19.9-8.9-19.9-19.9
		c0-11,8.9-19.9,19.9-19.9c11,0,19.9,8.9,19.9,19.9C275.4,179,266.5,188,255.6,188z"/>
	<g>
		<g>
			<path d="M524.9,193c0-0.3,0-0.6,0-0.9c0-0.3,0-0.5,0-0.8c0-0.3,0-0.5-0.1-0.8c0-0.2,0-0.5-0.1-0.7c0-0.3-0.1-0.5-0.1-0.7
				c0-0.2-0.1-0.5-0.1-0.7c0-0.2-0.1-0.5-0.2-0.7c0-0.2-0.1-0.4-0.1-0.6c-0.1-0.2-0.1-0.4-0.2-0.6c-0.1-0.2-0.1-0.4-0.2-0.6
				c-0.1-0.2-0.2-0.4-0.3-0.6c-0.1-0.2-0.1-0.4-0.2-0.5c-0.1-0.2-0.2-0.3-0.3-0.5c-0.1-0.2-0.2-0.3-0.3-0.5
				c-0.1-0.2-0.2-0.3-0.4-0.5c-0.1-0.1-0.2-0.3-0.3-0.4c-0.1-0.2-0.3-0.3-0.4-0.4c-0.1-0.1-0.2-0.3-0.4-0.4
				c-0.2-0.1-0.3-0.3-0.5-0.4c-0.1-0.1-0.3-0.2-0.4-0.3c-0.2-0.1-0.4-0.2-0.6-0.3c-0.1-0.1-0.3-0.2-0.4-0.3
				c-0.2-0.1-0.4-0.2-0.7-0.3c-0.2-0.1-0.3-0.1-0.5-0.2c-0.2-0.1-0.5-0.2-0.7-0.2c-0.2-0.1-0.4-0.1-0.5-0.2
				c-0.3-0.1-0.5-0.1-0.8-0.2c-0.2,0-0.4-0.1-0.6-0.1c-0.3-0.1-0.7-0.1-1-0.1c-0.2,0-0.3-0.1-0.5-0.1c-0.5-0.1-1.1-0.1-1.6-0.1
				c-0.3,0-0.7,0-1,0H499c-0.4,3-1,5.9-1.5,8.9c-2.6,14.1-6.5,28.4-11,41.6c-3,8.6-6.2,16.8-9.6,24.1c-1.1,2.3-2.2,4.5-3.3,6.8
				c-1.2-2.3-2.3-4.6-3.3-6.8c-3.4-7.4-6.6-15.5-9.6-24.1c-4.1-12.6-7-24.8-9.2-36.8c-0.3-1.6-0.9-3.2-1.8-4.8
				c-2.6-4.6-7.7-8.7-14.8-8.9c-0.2,0-0.4,0-0.6,0h-15.5c2.6,31.4,22.4,82,38.1,105.9c2,3,3.8,5.2,5.7,7c0.5,0.4,1,0.8,1.4,1.2
				c0.1,0.1,0.3,0.2,0.4,0.3c0.4,0.3,0.7,0.5,1.1,0.7c0.1,0.1,0.3,0.2,0.4,0.3c0.5,0.3,1,0.5,1.6,0.8c0,0,0,0,0,0
				c0.5,0.2,1.1,0.4,1.7,0.6c0.1,0,0.1,0,0.2,0.1c0.2,0.1,0.5,0.1,0.7,0.2c2.3,0.5,4.6,0.5,6.9,0c0.2-0.1,0.5-0.1,0.7-0.2
				c0.1,0,0.1,0,0.2-0.1c0.6-0.2,1.1-0.4,1.7-0.6c0.5-0.2,1.1-0.5,1.6-0.8c0.2-0.1,0.3-0.2,0.5-0.3c0.4-0.2,0.7-0.5,1.1-0.7
				c0.1-0.1,0.3-0.2,0.4-0.3c0.5-0.4,1-0.8,1.4-1.2c1.9-1.7,3.7-4,5.7-7c9.7-14.7,20.3-39.6,27.6-63.9c4.9-14.7,6.9-25.1,6.9-28.1
				C524.8,193.1,524.8,193.1,524.9,193L524.9,193C524.8,193.1,524.8,193.1,524.9,193C524.9,193.1,524.9,193.1,524.9,193
				C524.9,193,524.9,193,524.9,193z"/>
			<path d="M671.1,164.8c-12.9,4.3-24.8-7.3-21.9-20c1.4-6.1,6.3-11.1,12.4-12.5c12.7-2.9,24.3,9,20,21.9
				C680,159.1,676,163.1,671.1,164.8z M686,296.6c-22.4,0-34.7-12.7-34.7-36.2v-77.7c0-0.5,0.4-0.9,0.9-0.9h7.2
				c12.9,0,20.7,6.9,20.7,21.5v54.3c0,11.6,5,15.3,17.7,15.3h4.4c0.5,0,0.9,0.4,0.9,0.9v5.3C703.3,291.7,698.3,296.6,686,296.6z"/>
			<path d="M767.6,176.7c34.9,0,54.9,28,54.9,58.8c0,34.9-20,62.7-57.5,62.7c-34.9,0-54.9-27.8-54.9-58.6
				C710.1,204.7,730.1,176.7,767.6,176.7z M765,202.5c-16.6,0-25,13.8-25,32.9c0,23,8.4,36.8,27.6,36.8c16.8,0,25-13.8,25-32.7
				C792.6,216.3,783.9,202.5,765,202.5z"/>
			<path d="M580.4,177.1c-26.8,0-39.6,15.5-39.6,28.4v8l0,0.1c0,0.5,0.4,0.9,0.9,0.9c0.3,0,0.5-0.1,0.7-0.3l0,0
				c4.7-5.4,17.8-12.7,33.7-12.7c17.2,0,25,5,25,21.3v0.6c0,0.9-0.9,0.9-0.9,0.9h-9.2c-42.6,0-57.7,15.7-57.7,36.4
				c0,21.3,18.9,36.8,46.5,36.8h5.8c25.8,0,43.9-17,43.9-41.6v-26.7C629.5,189.2,606.2,177.1,580.4,177.1z M601.2,256.1
				c0,11.8-6,17.9-18.5,17.9c-12.7,0-20-5.4-20-14.4c0-9.5,6.2-14.6,28.2-14.6h9.4c0.5,0,0.9,0.4,0.9,0.9V256.1z"/>
			<path d="M888,225.8c-19.8-3.2-23.3-5.6-23.3-11.4c0-7.5,5.6-12.9,23.3-12.9c10.8,0,23.5,4.5,29.8,10.2l0.1,0.1
				c0.2,0.2,0.4,0.3,0.6,0.3c0.5,0,0.9-0.4,0.9-0.9l0,0v-9.9c0-11.2-12-24.8-34.2-24.8c-29.7,0-49.3,18.5-49.3,40.3
				c0,17.7,11.8,27.3,36.4,30.8c20,2.8,24.1,6,24.1,12.7c0,8.6-6.9,12.7-21.1,12.7c-0.6,0-1.2,0-1.9,0l0,0c-0.6,0-1.2,0-1.8-0.1
				c-1.2-0.1-2.4-0.2-3.6-0.3c-11.8-1.6-23.4-7.8-29-12.7l0,0c-0.2-0.2-0.4-0.2-0.6-0.2c-0.5,0-0.9,0.4-0.9,0.9l0,0.1v12
				c0,4.9,2.8,10.1,7.6,14.5c2.8,2.8,6.6,5.2,11.1,7.1c0.7,0.3,1.4,0.6,2.2,0.8c0.1,0,0.2,0.1,0.3,0.1c4,1.4,8.3,2.4,13,2.7
				c1.6,0.1,3.3,0.2,5,0.2c31.2,0,48.4-14.6,48.4-39.2C925,240.3,912.1,229.7,888,225.8z"/>
		</g>
	</g>
</g>
</svg>
